<?xml version="1.0" encoding="UTF-8"?><svg id="Calque_2" xmlns="http://www.w3.org/2000/svg" viewBox="0 0 617.8 277.78"><defs><style>.cls-1{fill:#0062ab;}</style></defs><g id="Calque_1-2"><path class="cls-1" d="m468.6,0c-12.38,0-22.46,10.08-22.46,22.46s10.08,22.46,22.46,22.46,22.46-10.08,22.46-22.46S480.98,0,468.6,0"/><path d="m61.07,106.56l-.72-.12c-13.06-2.23-23.37-3.99-23.37-11.3,0-6.58,6.2-10.67,16.18-10.67,15.16,0,17.81,9.92,18.27,13.56.1.76.75,1.31,1.51,1.31h31.31c.86,0,1.57-.71,1.54-1.56-.86-24.08-21.57-40.64-51.78-40.64S2.03,72.83,2.03,96.17c0,29.9,29.33,34.49,46.85,37.23,13,2.04,23.76,4.35,23.76,11.98s-8.66,11.27-17.25,11.27c-14.19,0-18.81-9.69-19.94-12.89-.22-.61-.79-1.01-1.44-1.01H1.53c-.91,0-1.62.79-1.52,1.69.48,4.56,2.95,17.55,15.82,29.28,8.79,8.02,22.32,11.1,37.23,11.27h0s1.06.01,1.06.01c15.97,0,29.53-3.86,39.22-11.16,9.77-7.36,14.93-17.69,14.93-29.89,0-29.44-26.17-33.85-47.19-37.4"/><path d="m452.72,59.45v123.28c0,1.26,1.02,2.28,2.28,2.28h27.18c1.26,0,2.28-1.02,2.28-2.28V59.45c0-1.26-1.02-2.28-2.28-2.28h-27.18c-1.26,0-2.28,1.02-2.28,2.28"/><path d="m583.49,137.92c-6.19,9.94-17.44,15.89-29.48,14.98-16.23-1.22-29.18-14.92-29.49-31.19-.35-17.88,14.1-32.54,31.9-32.54,11.1,0,21.28,5.8,27.06,15.07.28.45.76.72,1.28.72h31.51c1.01,0,1.76-.97,1.47-1.94-3.65-12.39-11.08-23.55-21.21-31.72-11.31-9.12-25.55-14.15-40.11-14.15-35.25,0-63.92,28.68-63.92,63.92s28.68,63.92,63.92,63.92c14.59,0,28.87-5.05,40.19-14.21,10.09-8.17,17.49-19.3,21.14-31.66.29-.97-.46-1.94-1.47-1.94h-31.5c-.52,0-1,.28-1.28.72"/><path d="m177.75,89.17c9.6,0,18.51,4.31,24.48,11.46,1.5,1.8.25,4.53-2.09,4.53h-44.78c-2.34,0-3.59-2.74-2.09-4.53,5.97-7.15,14.88-11.46,24.48-11.46m24.94,53.92c-1.19,0-2.32.5-3.19,1.31-5.89,5.5-13.63,8.59-21.75,8.59-11.88,0-23.03-7.03-28.23-16.41-1.2-2.17-.06-3.99,2.42-3.99h85.51c1.3,0,3.08-.99,3.5-2.23.81-2.36.73-2.2.73-9.28,0-4.76-.53-9.51-1.57-14.12-3.14-13.92-11.01-26.56-22.17-35.59-11.32-9.16-25.6-14.21-40.19-14.21-35.25,0-63.93,28.68-63.93,63.93s28.68,63.93,63.93,63.93c13.17,0,25.61-4.29,36.58-11.5,11.26-7.4,18.54-20.09,21.68-26.49.89-1.82-.44-3.94-2.47-3.94h-30.85Z"/><path d="m314.7,89.27c5.65-10.91,14.1-20.14,24.4-26.74-8.03-3.5-16.76-5.37-25.61-5.37-35.24,0-63.92,28.63-64.01,63.85h0v62.47c0,.84.68,1.52,1.52,1.52h29.02c.84,0,1.52-.68,1.52-1.52v-62.3h0c0-17.62,14.34-31.96,31.96-31.96.41,0,.81.03,1.22.04"/><path d="m408.8,134.75c-2.87,6.74-8.3,12.16-15.03,15.03-27.41,11.68-53.7-14.61-42.03-42.02,2.87-6.74,8.3-12.16,15.03-15.03,27.41-11.67,53.7,14.61,42.02,42.02m7.42,94.22c-.51-.52-.56-1.31-.15-1.91,0,0,28.55-38.11,28.55-103.01,0-37.92-28.53-67.07-64.02-67.07-33.59,0-64.14,26.61-64.14,64.02s29.59,64.11,63.82,64.11c8.54,0,16.69-1.69,24.13-4.73-3.1,8.87-7.27,18-12.92,26.74-27.5-20.1-49.09-22.16-59.41-21.64-15.89.81-34.74,9.92-41.26,31.6-6.52,21.68,2.15,39.59,12.54,48.14,8.14,7.5,17.61,11.53,26.69,12.33,16.85,1.48,34.41-4.9,44.11-10.83,4.79-2.92,9.22-6.04,13.38-9.3-8.7-9.8-18.59-18.12-22.89-21.58-7.28,4.72-18.08,10.88-29.5,10.88s-19.97-12.34-13.02-24.42c2.2-3.82,6.29-6.21,10.69-6.54,10.07-.74,15.82,2.02,27.14,7.88,17.22,10.03,46.52,40.28,55.33,50.73,1.04,1.24,2.86,1.44,4.15.48l20.22-15.14c1.38-1.03,1.62-2.99.56-4.34-7.4-9.41-17.18-19.43-23.99-26.42"/></g></svg>